<svg id="13dae5f0-47ca-4224-9ce8-11561668c15c" data-name="Layer 1" xmlns="http://www.w3.org/2000/svg" xmlns:xlink="http://www.w3.org/1999/xlink" viewBox="0 0 1021.36 583.94"><defs><style>.\30 78e58ef-b09a-4e44-aaaf-e1baa0236641,.\30 94ffe2a-9bb4-44f7-a2f4-8e1e07767fb6,.a9c1a80a-9482-4357-8a0d-be6bccb214d4,.e065601b-1fc5-4d42-ab0a-9d8fa22c8a4a,.f5ef65a7-3423-4791-a527-82b70f5d213b{fill-rule:evenodd;}.\30 78e58ef-b09a-4e44-aaaf-e1baa0236641{fill:url(#7a68969e-3fe5-4c99-b164-27c27b8eb0fd);}.\30 94ffe2a-9bb4-44f7-a2f4-8e1e07767fb6{fill:url(#4a470de6-afff-4c56-8576-eee366574754);}.f5ef65a7-3423-4791-a527-82b70f5d213b{fill:url(#9baf8296-b8f9-4749-9a0f-c355bda4e274);}.a9c1a80a-9482-4357-8a0d-be6bccb214d4{fill:url(#39f67f26-f8a8-4b13-bb3d-a2d0fec2af2c);}.e065601b-1fc5-4d42-ab0a-9d8fa22c8a4a{fill:url(#91c56249-2a69-4f2c-8d51-949c88e1415c);}</style><linearGradient id="7a68969e-3fe5-4c99-b164-27c27b8eb0fd" x1="152.51" y1="834.99" x2="142.99" y2="925.58" gradientTransform="matrix(1.47, -0.16, 0.16, 1.47, 271.72, -713.21)" gradientUnits="userSpaceOnUse"><stop offset="0" stop-color="#3fc6f1"/><stop offset="1" stop-color="#004f8f"/></linearGradient><linearGradient id="4a470de6-afff-4c56-8576-eee366574754" x1="71.43" y1="1398.07" x2="71.43" y2="615.27" gradientTransform="translate(635.15 115.49) scale(0.37)" gradientUnits="userSpaceOnUse"><stop offset="0.09" stop-color="#f9a41a"/><stop offset="0.91" stop-color="#ffcc40"/></linearGradient><linearGradient id="9baf8296-b8f9-4749-9a0f-c355bda4e274" x1="78.85" y1="1398.07" x2="78.85" y2="615.27" gradientTransform="translate(635.15 115.49) scale(0.37)" gradientUnits="userSpaceOnUse"><stop offset="0.09" stop-color="#ffcc40"/><stop offset="0.91" stop-color="#ffdd15"/></linearGradient><linearGradient id="39f67f26-f8a8-4b13-bb3d-a2d0fec2af2c" x1="-148.93" y1="759.5" x2="-148.93" y2="1379.19" gradientTransform="translate(635.15 115.49) scale(0.37)" xlink:href="#7a68969e-3fe5-4c99-b164-27c27b8eb0fd"/><linearGradient id="91c56249-2a69-4f2c-8d51-949c88e1415c" x1="-164.87" y1="616.34" x2="-164.87" y2="1236.03" gradientTransform="translate(631.74 168.07) scale(0.37)" gradientUnits="userSpaceOnUse"><stop offset="0" stop-color="#80d2ec"/><stop offset="1" stop-color="#18a1db"/></linearGradient></defs><title>dugef_blk_conf-logo</title><path d="M418,714.75a15.06,15.06,0,0,1-1.76,7.25,12.21,12.21,0,0,1-5.67,1.9,4.12,4.12,0,0,1-1.39-.34,4.35,4.35,0,0,0-1.13-.34l-3.28,2.25-3-.35-1.76.86-.88-.35-2.27,1.73-1.89-.69H390l-2.28.86h-.38l-.88,1.21-1.77-.86-1,.86-2.78-1.21-1.65,1.21a20.7,20.7,0,0,0-3.54-1,7.17,7.17,0,0,0-3.42,1.21l-5.7.7-.5-.87-2.15.76-.12,1,1.12,8.64-.27.87.38,1.72V744a37,37,0,0,1,.88,5.17l1.51,2.08-.25,1,2.52,4.31q3.91,3.79,5.93,3.8h.25a1.56,1.56,0,0,0,.63-.17H377a3.07,3.07,0,0,1,1.38.52l1.14-.18q1.64-.51,4.67-1.19l1.39-1.05.25-.69.88-.17,1-.87.63.52,2-.87,1.64-1.38.63-1.21,2.14-2.25,1.64-.34,3-3.12c2.1-.45,3.61-2.76,4.54-6.91l.38.17.13-.51,1.64-.18,2.4-2.76.88-.17a2.09,2.09,0,0,1,.88-.17q2.39,0,2.9,6.4l-5.55,9-1.39.52-.5,1-2.4,3.46-3.41,2.76-2.77,3.64-.88-.17-1,1.37-5.67,2.95-2.27,3.45-1.64-.85-.63,1.54-1.14-.52-.63.87-4.17-1-4.28,2.43-4.28-1.9-5.42-3.46q-6.93-4.51-10.71-24.89v-1.9l-1-4,1-1.72-.63-4.84-.13-1.56-2.14-3.28v-2.08c0-3.33.67-5.64,2-6.9a6.89,6.89,0,0,1,1.39-2.61l-.5-.51v-7.27l1.53-5.52.35-2.77-1.26.17h-.51a3.69,3.69,0,0,1-3-1.64,6.17,6.17,0,0,1-1.26-3.89,10.35,10.35,0,0,1,2.4-5.87l.88-1.21,1.13-.69a6.94,6.94,0,0,1,3.15-1.21h2.4l1.26-2.94,5.67.52.38.51a15,15,0,0,1,3.4-.29l2.52-.75h.64a7.92,7.92,0,0,0,3.15-2.77l1.89,1.55h3.15L394.9,679l1.26,1,1.76-.61,1-1.63,2.52,2.24.88-1,2.78,1.55L407,680l1,.52,4-.52.88.86,2,.52a3.49,3.49,0,0,1,2.9,3.8,6.25,6.25,0,0,1-1.07,3.63c-.72,1-1.45,1.56-2.2,1.56h-.51l-1.39,1-2.52-1-1.13.17a2.43,2.43,0,0,1-1,.18,3.86,3.86,0,0,1-2.27-.7l-.38-.68a9.18,9.18,0,0,1-1.64.35,3.33,3.33,0,0,1-1.26-.35,10.87,10.87,0,0,1-4.67,2.06c-1.18,0-2.48-.05-3.9-.17a5.7,5.7,0,0,1,.5-1.21l-3.28,1.38h-.25c-.59,0-1.69.81-3.28,2.42l-1.64-1-.76.69-3-1.21-1.77,1.21h-2.52l-3.78,1L371,696.42l-.88-.69-1.64,1.56h-1.64l-.37.87.37,2.06-2.14,3.46,1,.16v4.83l1.37,2.1-1.13,1.38a12.81,12.81,0,0,0-1.26,4,1.11,1.11,0,0,0,.75,1l1.52-.69a4.64,4.64,0,0,1,1.26-.17A17.43,17.43,0,0,1,371,717l2.27-1.21,2,.52h6.18a4.86,4.86,0,0,0,2-1.21,5.06,5.06,0,0,0,2.9.7,3.61,3.61,0,0,0,.88-.17h1.27a.87.87,0,0,1-.51-.18h.38a35.73,35.73,0,0,1,4.54.87,15,15,0,0,1,3.91-.56c1.34-.19,2.19-.3,2.52-.3,1.26,0,2.48.06,3.65.18l1.14-.18a5.57,5.57,0,0,1,3.28-1.38,5.41,5.41,0,0,1,2.27.53l1.77-.53,1.51.87,5-1.73v1.56Z" transform="translate(-129.65 -220.16)"/><path d="M473.81,727.35h-.12l-1.39-1.89,1.51-1.73a5.48,5.48,0,0,1-1-3.61l-.9-.69-.64-7.07-1.48-3-.37-3-.26-.69h-.88l-.38-6.22-1.14-2.25-.63-.34-.37-.7-.51,1.22-3,5.19-1,2.94-2.52,3.1-.5,3.12-2.9,1.72q-.64,5.19-3.79,7.44l-.88,3.46L449,726.67h1.13a9.7,9.7,0,0,0,3.78,1h.51a2.6,2.6,0,0,1,1.51-.52,3.92,3.92,0,0,1,2,.69l.5.17a12.17,12.17,0,0,1,2.4-.17,19.93,19.93,0,0,1,3,.17l4.41-.69,2.9,2.08a5,5,0,0,0,2.52-2.42c0,.12,0,.17.12.17v.17ZM504.95,774a6.33,6.33,0,0,1-4.16,6.06L496,777h-1.38L493,775.24h-2l-1.51-3.46-1.27-.85-1.64-4-2.27-3.28v-1.38l-1-1.22-.25-2.76-1.64-2.07-2.65-8.13-1.13-1.9-.51-4.84-1.64-2.93-2.65-.52-2.9,2.25-.63-.87-2,1.73-.63-1.9a7.25,7.25,0,0,1-1.89.17,8,8,0,0,1-2-.17h-1l-2.65,1.9-2.9-.52h-.5l-2,1.56-1.64-.87a6.86,6.86,0,0,1-3.53-.69h-.63l-3.27,2.08-1.26-1.9L441,739.8l-.5.52q-2.78,5-4,7.08l-2,.69q-4.79,9.51-6.05,10.2l-.5.17-4,6.75h-.5l-2.52,5.36-4.79,3.64a8.32,8.32,0,0,1-2,.34,6.13,6.13,0,0,1-4.54-2.42L411,767.8v-2.59l.5-.86.25-3.46,3.91-.69,1-.86a5.15,5.15,0,0,0,1.76-3.64,4.32,4.32,0,0,0,2.77-3.46c2.27-1.6,3.74-4.15,4.41-7.6l2.14-1,3.15-6.4a15.86,15.86,0,0,1-1.51-4.84l2.65-2.93v-3.29l4.92.53,1.26-.86a6.19,6.19,0,0,1,2.52-4.15l.25-3.29,2.65-1.9a6.86,6.86,0,0,1,1.38-.86v-1a7.18,7.18,0,0,1,.51-2.76,9.88,9.88,0,0,0,2.77-7.09l1.76-.52.63-1.54.89-.17,2.4-6.23h.63l1-.64v-4.38h.88q3.15-4.66,3.15-6l.63-.68-.63-2.59q3-5,4.92-5.19L467,674l2.77,3.81,3.53,2.59.38,4.49a12.14,12.14,0,0,1,1,2.08,13.9,13.9,0,0,1,2,6l.76,4.32,1.89,3.8,1.13,5.71.26,2.77,2.27,3.81-.51,1.21,1,1.21v3.46l.26,2.59c-.26,1.73-.38,2.37-.38,1.9l.63.86.76,1.38a8,8,0,0,0,2.4-.51H491a5.22,5.22,0,0,0,1.51.34A2.35,2.35,0,0,0,494,725a3.65,3.65,0,0,1,2.58-.78c.84,0,2.1.58,3.78,1.73l3.78.36a12.74,12.74,0,0,1,.25,2.06,4.58,4.58,0,0,1-1.9,4l-1.88-.86L497.14,735l-2.9-.52-1.26.87-2.78.33V735l-3.27,1-.13,1,.25,4,1.65,3.11.25,3.12,2.9,5.53-.25,1.9,1.13,1.56,3,6.39,2.14,2.94.5,1.38,2.28,1.56.88,2.76,3.4,2.76Z" transform="translate(-129.65 -220.16)"/><path d="M596,740.32l-4.67,8.47,2.39,4.49-2,1.74-.37,4.48-.77,2.6a13.74,13.74,0,0,1-.63,4.67l1.4,1.73-.77,4.15.64,3.62-.38,1.39,1.38,1.9L590.53,782l.64,3.29-.88,2.76a22.46,22.46,0,0,1,.88,5.53v.7l1.52,3.63c-.18,4.14-1.48,6.22-3.92,6.22-1.09,0-2.52-1.44-4.28-4.32l-.51-4a11.73,11.73,0,0,1-1.89-4.49L580.7,787v-2.25l-.62-1.37v-.7l-1.4-.69.25-.52a12.08,12.08,0,0,1,.51-4v-1.56a15,15,0,0,1,.25-2.59l-.37-1.73-1.26-.68c1.43-1.27,2.15-2.48,2.15-3.65a8.18,8.18,0,0,0-.19-1.19,6.67,6.67,0,0,1-.2-1.21l-.5-5.71.63-2.06a18.4,18.4,0,0,1-7.06,1.72h-1.14a3.54,3.54,0,0,0-1,.34l-1.89,2.34-4.92,1.18-2.4,1.69h-2.9l-2.15,1.37h-2.64l-2,1.38-1.26-.34a14,14,0,0,1-4.28,1.37,3.7,3.7,0,0,0-2.66,1.39,3.68,3.68,0,0,1-1.89-1.73,3.29,3.29,0,0,1-1.26.18l-2.78,1.9-1.89-1.9a18.31,18.31,0,0,1-5-1l-1,.86-2.27-1.37H524l-1.89-2.25-2.9-1.56L513.52,755l-.76-5L511,746.72l.75-2.6a6,6,0,0,1,.14-1v-1l-1.39-2.6,1.76-4.13.63-.18,3-6.91v-1.55l.76-.34.38-.52.76.52c.92-.12,1.43-1.4,1.51-3.81l.88.53a14.68,14.68,0,0,1,2.27-3.29l-.38-.69.38-1.21,1.51-1.56.25-.16,1.51-3.64.88.87h1.14l1.51-3.45,3.15-.88,1.14-1.54a1.16,1.16,0,0,1-.25-.7l.25-1.38,1.39-.34.76-.87.5.87.88-1,.38-1.55,2.64-.36,2.15-2.58,2.39-.52.88-1.21,1.26.52.76-1.56,1,1,.13-1a2.14,2.14,0,0,1,1.64-2.23,4.7,4.7,0,0,1,3.91-2.43h2.27l.38-.34,2.13-2.6,1.27.35,2.15-1.56h.88a6.2,6.2,0,0,1,2.65-.87l2.27-1.72,1.25.52h.88l.63-1.56h3l.89-.13.63-1.43,3.91,2.08h2.27l2.65,2.6a26,26,0,0,1,4.66,3.29q-.12,8.29-7.93,9.68l-3.26-2.25-1,.51-2.14-1-1.26,1-2.39-.73-4,2.74-1.77-1.48-2,.87a2.68,2.68,0,0,0-1.63,1.21c-1.52,1.72-3.07,2.59-4.68,2.59H556q-5.3,4.32-8.71,5.53l-.5,1.73H545.3l-1,2.06-2,.34a19.53,19.53,0,0,1-4.42,4l-2.27,1.38L532.18,723l-1.89,1.89-2.15,3.62-3.28,3.63v3.25l-1,1.21-2,6.37v2.24a12.78,12.78,0,0,1,2.52,6.19l.38.52,2.9,1.9,3,1h4l5,1.38.88-.17,1,.17,6.93-.69.37-.18a41.82,41.82,0,0,1,5-1.38l2.14-1,5.3-.52,8.32-2.58a9,9,0,0,1,5-2.25l1.77.18c1.43,1,2.18,2.07,2.27,3.11l1.26-3.8-1.26,1.54V745.5l1.26-.34,1.51-2.77a8.72,8.72,0,0,1-.89-1.9,9.23,9.23,0,0,1,.2-1.81,9.39,9.39,0,0,0,.19-1.12,23.67,23.67,0,0,0-1.39-6.22,7.13,7.13,0,0,1,4.54-1.73,7.51,7.51,0,0,1,4.16,1.21l1.14,1.54a9.81,9.81,0,0,1,3.15,3l3.28,5Z" transform="translate(-129.65 -220.16)"/><path d="M684.83,755q0,4.48-4.41,4.83a4.07,4.07,0,0,1-2.9,1.37l-4.67.87h-2.27l-1.76,1.72h-2.91l-1.14,1.39h-6.17l-3.54,2.59h-.63a2.94,2.94,0,0,0-1.26.2l-.64.94a4.08,4.08,0,0,1-2.38.94,3.92,3.92,0,0,1-2-.86l-2.78.86-2.89.17-3,1.21H632l-4.16-1.38h-3.4l-1.14-1.38-2.4-.17a32.27,32.27,0,0,1-7.68-11.89c-.6-2.75-1.23-5.51-1.89-8.26l-1-3.27,1.25-5.85-.76-7.06,1.14-1,.25-6.54.89-3.44.63-5.16V705.13l1.13-2.75.25-1.38v-6.2l.75-1.37-1.14-1.21,1.53-6.2.37-.17-.76-2.75,2.78-1.54a7.55,7.55,0,0,1,3.15-2.59l3.28.7L628,688l-1.76,1.9a5.91,5.91,0,0,1,.63,2.77l-1.39,5.19v5.88L624.17,709l-.35,5-2,10.38v1.38a12.81,12.81,0,0,1-.38,3.29l-.25,2.42-.26,3.1.26,5.36-.39,1.38,1,7.6,1.76,5.36v.52l4.67,3.81,6.8.86h2l4.79-1.21h3.4l.88-.86h6.93l1.51-1.73h5l2.27-1,8.2-.52,3.4-1.22a21.46,21.46,0,0,0,3,.19l1.25-1.4a6.71,6.71,0,0,1,3-.86c2.69,0,4,1.37,4,4.15Z" transform="translate(-129.65 -220.16)"/><path d="M757.57,714.75a15,15,0,0,1-1.76,7.25,12.23,12.23,0,0,1-5.67,1.9,4.11,4.11,0,0,1-1.39-.34,4.45,4.45,0,0,0-1.13-.34l-3.28,2.25-3-.35-1.76.86-.88-.35-2.27,1.73-1.9-.69h-4.92l-2.27.86h-.38l-.89,1.21-1.76-.86-1,.86-2.78-1.21-1.64,1.21a20.49,20.49,0,0,0-3.54-1,7.19,7.19,0,0,0-3.41,1.21l-5.7.7-.51-.87-2.15.76-.12,1,1.12,8.64-.27.87.38,1.72V744a36.94,36.94,0,0,1,.88,5.17l1.52,2.08-.26,1,2.53,4.31c2.6,2.53,4.58,3.8,5.92,3.8h.25a1.55,1.55,0,0,0,.63-.17h.5a3.1,3.1,0,0,1,1.39.52l1.13-.18c1.09-.34,2.65-.74,4.67-1.19l1.39-1.05.25-.69.89-.17,1-.87.62.52,2-.87,1.64-1.38.64-1.21,2.14-2.25L736,751l3-3.12c2.1-.45,3.62-2.76,4.54-6.91l.37.17.14-.51,1.64-.18,2.4-2.76.88-.17a2,2,0,0,1,.88-.17q2.4,0,2.9,6.4l-5.55,9-1.39.52-.51,1-2.39,3.46-3.4,2.76-2.78,3.64-.88-.17-1,1.37-5.67,2.95-2.27,3.45-1.64-.85-.63,1.54-1.13-.52-.63.87-4.16-1-4.28,2.43-4.28-1.9-5.43-3.46Q697.82,764.34,694,744v-1.9l-1-4,1-1.72-.63-4.84-.13-1.56-2.15-3.28v-2.08c0-3.33.67-5.64,2-6.9a7.14,7.14,0,0,1,1.39-2.61l-.49-.51v-7.27l1.53-5.52.35-2.77-1.26.17h-.5a3.69,3.69,0,0,1-3-1.64,6.2,6.2,0,0,1-1.26-3.89,10.32,10.32,0,0,1,2.4-5.87l.87-1.21,1.14-.69a6.9,6.9,0,0,1,3.15-1.21h2.4l1.26-2.94,5.67.52.38.51a15.09,15.09,0,0,1,3.41-.29l2.52-.75h.63a7.87,7.87,0,0,0,3.15-2.77l1.89,1.55h3.15L734.5,679l1.27,1,1.76-.61,1-1.63,2.51,2.24.89-1,2.78,1.55,1.89-.52,1,.52,4-.52.88.86,2,.52a3.5,3.5,0,0,1,2.9,3.8,6.26,6.26,0,0,1-1.07,3.63c-.71,1-1.45,1.56-2.21,1.56h-.5l-1.39,1-2.51-1-1.14.17a2.39,2.39,0,0,1-1,.18,3.89,3.89,0,0,1-2.28-.7l-.37-.68a9.2,9.2,0,0,1-1.64.35,3.33,3.33,0,0,1-1.26-.35,10.93,10.93,0,0,1-4.67,2.06c-1.18,0-2.48-.05-3.91-.17A5.47,5.47,0,0,1,734,690l-3.28,1.38h-.26c-.58,0-1.68.81-3.27,2.42l-1.64-1-.76.69-3-1.21L720,693.48h-2.52l-3.78,1-3.15,1.89-.89-.69L708,697.29h-1.64l-.38.87.38,2.06-2.15,3.46,1,.16v4.83l1.37,2.1-1.13,1.38a12.86,12.86,0,0,0-1.26,4,1.11,1.11,0,0,0,.75,1l1.52-.69a4.67,4.67,0,0,1,1.27-.17,17.78,17.78,0,0,1,2.77.69l2.27-1.21,2,.52H721a4.83,4.83,0,0,0,2-1.21,5,5,0,0,0,2.9.7,3.61,3.61,0,0,0,.88-.17h1.26a.84.84,0,0,1-.5-.18h.37a35.87,35.87,0,0,1,4.54.87,14.83,14.83,0,0,1,3.91-.56c1.33-.19,2.18-.3,2.52-.3,1.26,0,2.48.06,3.65.18l1.13-.18A5.56,5.56,0,0,1,747,714a5.4,5.4,0,0,1,2.27.53L751,714l1.52.87,5-1.73v1.56Z" transform="translate(-129.65 -220.16)"/><path d="M886.79,687.18q0,3.33-3.66,3.51l-2.27,1.4-2.27-.69-3.28,2.08a9.85,9.85,0,0,0-4-1.56,10.68,10.68,0,0,0-1.07.25,6,6,0,0,1-1.7.27,4.9,4.9,0,0,1-1.51-.17l-2.78,1.21h-.63l-.26.16-6.93.16-.76,1.58L852.5,694l-1.26.87-3,.34-1.9-.52c-.76.12-1.49.27-2.2.43s-1.12.25-1.2.25l-1.64.34-.76.69.76,3.07,1,3.58-.5,2.73,1.26,1.36-.76,2v2.22a14.17,14.17,0,0,1-.63,3.75l-.37,5.63h2l4-.52,1.76.52h2l.76-.66,3.9-.55,2.78,1.21c1.34-.28,2.31-.45,2.9-.52h4.17l2.39-.87,1.38.87,1.9-.31a10.75,10.75,0,0,1,1.51-.16l7.31-1.09.88.52a2.1,2.1,0,0,1,.88-.17,4.78,4.78,0,0,1,2.14.69,12.25,12.25,0,0,1,1.64,5.54,6.09,6.09,0,0,1-.13,1.38l-2.39.52L881,728.74h-1.89l-1,1h-3.53l-3.14,1.12-3.65.78-.75-.17-.26.35-4.78-.69-1.63.87-2.27-.35a7.09,7.09,0,0,1-4.65,1.56h-1.13c-.42.08-1.3.31-2.64.7l-2.64-2.08a7.16,7.16,0,0,1-2.51,2.08l-2.39-.7h-1.52q-.25,1.75-.75,10.45a20.64,20.64,0,0,1,.37,3.65L839,751.69l.89,2.09-1.14,2.78.38,2.61-.63,1.57c-1.09,7.9-1.84,12.93-2.27,15.14-.68,3.48-1.43,5.51-2.27,6.1l-2.77-1.9h-3.41l.89-5.41v-2.43l.75-1,.25-2.27.13-.87v-2.26l-1.39-1.74.28-1.05a17.27,17.27,0,0,1,1.11-6.44l-.63-.69.25-2.1-.38-2.44.76-2.79v-6.26l.51-6.1-.51-2.08v-.87l-2,1.37-2.9-2.06-1.27.35a9,9,0,0,1-1.51.34q-3.52,0-3.53-5.7,0-7.26,5.19-7.26a34.56,34.56,0,0,1,3.71.13l3.46.39v-6.87l-.63-.33.63-10.48-1.28-4.62-.13-1.54-.89-.69-4.08,3.12-2-3.8c-1.54-.92-2.3-2.72-2.3-5.36a6.23,6.23,0,0,0,.76-2.42v-4h3.53q2.64-2.24,4.79-2.24c-.08,0,1.13.23,3.66.69q2.27-.27,8.32-.69l4.53.69,3.41-.17.5-.52a3,3,0,0,1,1.89-.7,2,2,0,0,1,1.39.46l.5.24c.76-.13,1.89-.36,3.41-.7s2.64-.55,3.4-.69l.13.52.76.86h.5a6.6,6.6,0,0,0,1.76-.35,6.59,6.59,0,0,1,1.64-.35h.37l3.41.79,3.65.6a10.2,10.2,0,0,1,3.53-.69,4.48,4.48,0,0,1,2.4.69h2.15a4.69,4.69,0,0,1,2.52-.69q3.65,0,3.66,5.62Z" transform="translate(-129.65 -220.16)"/><path d="M963.81,726.64l-.63-4.83.63-1.38-.89-2.94a3.17,3.17,0,0,0,.13-1,1.5,1.5,0,0,0-.26-.87l-2.27-2.07-.76-2.76-1-.54-.38-2.4-3.14-4-1.89-2.06-.76.51q-2.89-3.32-10.71-5.54a2.9,2.9,0,0,1-1.25-.16l-.64-.1-2.27-.82-1.26.92a9.83,9.83,0,0,0-2.27-.87,4,4,0,0,0-.95.44,3.3,3.3,0,0,1-1.45.43h-1c-.59,1.37-2,2.58-4.16,3.62l-1.65-.33-1.76,1.21-2.27-.34a69.2,69.2,0,0,1-5.3,5L915,707l-.63,3.8-2.91,1.73-.5.87a15.15,15.15,0,0,1-2,3.8v2.93l-1.77,1-.37.34-1.14,5.19L903.94,728c-.26,5.88-1,10-2.15,12.27a12.1,12.1,0,0,0-1.14,5.18l-.5,1.9.39,1.21.37,2.6,1.52,2.25.25,2.25,1.27,1.73c2.35,1.84,4.46,2.82,6.3,2.94l5.3-1.91,1.14,1.56h1.51l.26-.26,3.76-1,4,.93a2.92,2.92,0,0,1,2.4-1.39c1.94-1.61,3.56-2.41,4.92-2.41l2.64-2.08,2-.16,1.64-1.73,3.9-.17a3.58,3.58,0,0,1,1.14-.17l.25-.52a4.23,4.23,0,0,1,2.64-2.25l1.52-4.84,1,.86,1-.69,1.76-2.24.64.27,2.15-2.06,3.79-5.18,1.65-.69.76-2.58,1-.87-.26-1.54,1-2.59Zm9.46-1L972,729.26l-.49,5.7-1.27,1.56q-.74,6.91-3.9,8.81l-.89.52-7.56,7.27-2.27,1.72L952,760.37l-2.27-.52-1.38,1.37-2.53,1.21-6.3,4.49a8.33,8.33,0,0,1-2-1.56,4.24,4.24,0,0,1-2.78,2.25h-.5l-2.52,2.77-.5-.35h-2.39l-1.14,1.21-4.79-.17-6.3,1.73h-2.91l-3.53-.69-.63-.86-5-1-2.14-1.37h-3v-1.91l-2.39-3.46-3.15-1.9-1.39-5.36-.13-4-.76-1.2-.12-7.79,1.64-6.9v-4.16l.38-.86V728l1.76-2.42V723.9l.77-1.9v-1.73l.5-.87-.63-1.9,2-1.89,2.39-6.92,5.18-10.19,1.25-.87c.26-.57.63-1.33,1.13-2.25L909,694v-2.77l1.89-.51a12.9,12.9,0,0,1,4.17-3.11l.62-1c.76-.46,2.94-1,6.56-1.73l3.41-.69,4,.69H938l4,.15-.25.89,1.89.69a1.82,1.82,0,0,0,.75-1.73,2.63,2.63,0,0,0,2.78,1.74l1,1.54H952l8.44,5,1,3.8.75,1.55,2.27,1.21,3.4,7.6,2,3.46q3.4,10.89,3.41,13v1.9Z" transform="translate(-129.65 -220.16)"/><path d="M1072.72,767.8l-.75-.35-1.13,2.25-2.91.52-2.51,1.22-3.53-1-.64.35-2.39,2.25a7.7,7.7,0,0,0-2.15-1.73l-2.27,2.94-1.76-2.43-.76.35c-.25-.35-.52-.69-.82-1s-.48-.58-.56-.69h-5.42l-.89-1.38-2.51-.87a36.72,36.72,0,0,1-3.66-1.55h-1.51l-1.13-1.73h-.5c-.68,0-1.41-.57-2.21-1.74a7.44,7.44,0,0,0-1.58-1.9c-1.68-1.15-3.41-2.38-5.17-3.71a12.36,12.36,0,0,1-4-5.45,14.55,14.55,0,0,1-4-4.15l-3.53-3.8-4.16-5.53-.88-.52-2.39-3.11-.89-.17-.37.17a3.68,3.68,0,0,1-1.52.35,3.61,3.61,0,0,1-1.64-.44c-.59-.28-1-2.16-1.26-5.61l1.13-1.73a13.88,13.88,0,0,1,2.52-5.87l3.53-.52v.34a1.73,1.73,0,0,0,.38,1h1.77c.08.7.75,1,2,1a33.34,33.34,0,0,0,5-.51v-1a22.11,22.11,0,0,0,4.54.35,23.21,23.21,0,0,0,6.81-.86l1.63-1,2.78-.71,3.53-.52.51.17.63-.34a20.31,20.31,0,0,1,3.4-1.21l1-.52,1.14-.87h.5l1.39-1.39,3.66-1.55c.84-.57,1.26-1,1.26-1.37a2.08,2.08,0,0,0-.63-1.39l-3.16-3.8-1.27-.35-.75-.69a4.62,4.62,0,0,0-2.15-1.56l-1.65.07-2.65-1.39-1.77-.07-1.63-2.07h-2.52l-1.26-.17-7.18-.69-.38-.17-.5.17-1.77-.52-1.14.34-3.91-.65-4.16.93-2.14-.84-2,.37-1.53-.42-2,1.15-1-.53-1.89,1h-.88a13.2,13.2,0,0,0-.25,2.09,2.08,2.08,0,0,0,.13.69v.69l-.31,8.69a15.68,15.68,0,0,0-.32,3.11,11.16,11.16,0,0,0,1.27,5.22l-1.27,2.42.51,4.52-.88,4.52a39.86,39.86,0,0,0-.76,7.82v8l.89,10.25.24,1.38-1.13,6.61v1.39q0,4.51-8.07,4.51l.87-9.16-.5-1.73-1.52-8.8a9.64,9.64,0,0,1-.38-2.42,12.5,12.5,0,0,1,.62-3.46,3.79,3.79,0,0,1-.75-2.25,12.53,12.53,0,0,1,1.14-4.5,11.58,11.58,0,0,1-.39-3.11v-4.84a13.37,13.37,0,0,0,1.27-2.77,20.3,20.3,0,0,0-1.27-3.28l1-3.45-.37-3,.5-.69.13-1.72-1.27-6.92.64-3.11-.64-5.7h-3l-3,4.67a9.88,9.88,0,0,0-4-4.23,7.35,7.35,0,0,1-2-4.94,9.84,9.84,0,0,1,1.76-5.12l2.9-2.63,4.54-.54H991a5.13,5.13,0,0,1,5.3-4h3.39l.76,2.94,2.15-1,3.53.87,4.79-.87,6.94,1.21h9.45l4.54.86h4.54l.37.86h1.26v-.52l8.32,4.32,3.41,2.07,2.65.35,1,1.56q5.67,5.87,6.43,12.44l-.13.86a12.89,12.89,0,0,1-2.27,5.71l-5.17,7.08-3.15.34-.63.35a11,11,0,0,1-4.92,2.08l-1,1.21-3.92,1.38h-.63a2.94,2.94,0,0,0-2,.69l-3,3.63-2.65-2.07-.38.17-1.38,1-.89-1.2a6.2,6.2,0,0,1-1.26,2.07l-2.39-1.21-2.27,1.21-.64-.69-.75.34.38.34,1,1.87,4.74,5.11,1.39,2.76,1.26,1.71.76,2.42,2.9.17L1037,753l1.9,1,2.65,2.07,2.52.86,3.16,1.54,1.76-.17,1.52-1.2.63,2.25,2.14-.54.38,1,1.51.52,4.29-.52,1.76.52,5.55-1.38,4-1.21.63-1.56h1.76l2.4-4q3,4.67,3,7.26l.12.87c0,1.14-2,3.63-6,7.43Z" transform="translate(-129.65 -220.16)"/><path d="M1141.18,737.9l-.37-3.29-3.91-6.73h-1.26l-1.38-4.63a22.11,22.11,0,0,1-3.78-2.75l-.37-2.06-.63-.68-3.78-1.54-1.14-2.75-8.94-6.69h-1.26a4.63,4.63,0,0,1-3.4-1.55l-.38-1.38h-2.39l-.63-.69-1.64-.52a2.46,2.46,0,0,1-1,.17c-.76,0-1.22-.25-1.39-.73l-.13-.53-1.52-1.37-2.27-.17a3.47,3.47,0,0,0-2.66-1.69l-.88,2.76h-.63l1.51,4.21-.88,1.4a23.78,23.78,0,0,1,.88,4.22v3l1,4.55-1,.52v6.84c0,.24-.17,1.52-.51,3.85l.88,1.06-1.39,5.27.89,3.86-1.63,2.72,1.12,2.42-.25,3.45.88,2.08-1,2.4.13.7,1.26-.17,4.29-.86a7.81,7.81,0,0,1,3.28-.7,7.28,7.28,0,0,1,3.28.7c1.68,0,3.57-.8,5.67-2.44q6-.5,4.66-.51a4.48,4.48,0,0,1,1.14.17,3.65,3.65,0,0,0,.88.17,2,2,0,0,0,1.89-.86l2-.69a5.47,5.47,0,0,1,3.53-1.73,3.16,3.16,0,0,1,1.52.52,3.77,3.77,0,0,1,1.51-.52l1.38-2.6,2,.69.88-.52,1.77-1.72h.76l3.27-3.29.13-1.38Zm9.83-1.21v.51a1.81,1.81,0,0,0-.13.53l-.5,1.72-.37,2.6-2.52,4.67-.88,2.6-2.64,1.55-.89,1.54-3.53,1.39-2.27,1.74h-1.14l-.75,1.55h-3.28a5,5,0,0,1-4.66,2.59c-.34-.46-.55-.69-.63-.69a5.91,5.91,0,0,0-1.63,1.21l-2.15-.34-.89.52-2.38-.34.62.51a15.6,15.6,0,0,1-4.41,1,1.73,1.73,0,0,1-.88-.17,16.17,16.17,0,0,1-5.93,1.55,3,3,0,0,1-.63-.17h-.63l-1.89.69-1.64-.86-.89.52-1.63,2.25-2.28-.68c-.25-.11-.71-.34-1.39-.69l-.25.17-1.52.51-.25,3.4-.75,2.73-3.85,6.14-1.61-1.9h-2.61l.5-6v-2.08l-.88-.85c-.33.22-.93.69-1.77,1.37h-3.4l-2.39-2.24-1-4,1.8-2.24a12,12,0,0,1,6-4l-.18-.36a6,6,0,0,1-.33-1.73,6.24,6.24,0,0,1,.5-2.42l-.38-7.94.38-2.08v-3.62l1.13-1.91-1.76-3.45,1.76-4.84-.63-10.38.25-4v-2.6l-1.13-3.79v-5.36l-.76-2.42-.76-.52-2.78,1.73-4.79.52c-1.52,0-2.61-2-3.28-5.88l-.88-5.36q3.15-3.63,5.8-3.63h.25a19,19,0,0,1,6.55-1.38,2.65,2.65,0,0,1,1.14.44,2.89,2.89,0,0,0,1.4.44c-.09,0,1-.3,3.15-.87l.5,1.38h4.53l4.92,1.47,1.64,1.3,3.66-.7,1.39,2.84.75.16,2.15,1.83,1.26.17,1.52.87h.5a4.77,4.77,0,0,1,3.53,1.53,11.23,11.23,0,0,1,5.67,4.39,7.76,7.76,0,0,1,1.77.84,5.58,5.58,0,0,0,3.4,1.88l3.53,3.38,3.41,3.9-.37.51h2.9l1.26,1.2.37,2.59a60.76,60.76,0,0,1,6.69,9.33c.08.35.17.76.25,1.21l2,1.56v4.32l1.13,1.55a7,7,0,0,0,.13,1.73l.37.34a7.12,7.12,0,0,1,1.26,3.46Z" transform="translate(-129.65 -220.16)"/><path d="M129.93,312.47H292.41q48,0,77.6,13a126.34,126.34,0,0,1,48.91,37.37q19.31,24.35,28,56.64A262.85,262.85,0,0,1,455.63,488q0,56.66-12.92,87.88t-35.86,52.33q-22.94,21.09-49.26,28.07-36,9.67-65.18,9.66H129.93Zm109.36,80V585.88h26.92q34.43,0,49-7.61T338,551.71q8.24-18.94,8.25-61.44,0-56.23-18.44-77T266.7,392.5Z" transform="translate(-129.65 -220.16)"/><path d="M682.94,312.47H791.51V523.23a177.51,177.51,0,0,1-9.77,59.19,127.66,127.66,0,0,1-30.58,48.71q-20.86,20.86-43.71,29.3-31.79,11.81-76.34,11.81a478.52,478.52,0,0,1-56.24-3.62q-30.45-3.59-50.94-14.34t-37.44-30.5Q469.52,604,463.25,583q-10.11-33.76-10.12-59.79V312.47H562.49V528.32q0,28.95,16,45.22t44.36,16.28q28.12,0,44.13-16t16-45.46Z" transform="translate(-129.65 -220.16)"/><path d="M981.9,537.52V463.83h168.78V615.15q-48.41,33.16-85.67,45.13t-88.31,12q-62.9,0-102.53-21.48t-61.44-64q-21.84-42.49-21.82-97.56,0-58,23.86-100.83t69.92-65.09q35.87-17.13,96.63-17.14,58.56,0,87.62,10.6t48.18,32.93q19.19,22.31,28.83,56.54L1040.52,425q-6.51-20-22-30.6T978.84,383.8q-35.92,0-57.25,25t-21.31,79.07q0,57.48,21.54,82.09t60.06,24.63a113.15,113.15,0,0,0,34.88-5.32q16.63-5.38,38.05-18.23V537.52Z" transform="translate(-129.65 -220.16)"/><path d="M129.65,221.43a79.34,79.34,0,0,1,11.52-.85c7.78,0,13.32,1.76,17,5.09s5.92,8.06,5.92,14.67-2.12,12.11-6,15.87-10.4,5.88-18.56,5.88a89.68,89.68,0,0,1-9.84-.48Zm5.42,36.11a35.28,35.28,0,0,0,5.48.3c11.58,0,17.87-6.3,17.87-17.32.06-9.63-5.54-15.75-17-15.75a31.87,31.87,0,0,0-6.36.54Z" transform="translate(-129.65 -220.16)"/><path d="M197.16,242.57H180.85v14.72H199v4.43h-23.6V220.89H198.1v4.42H180.85v12.91h16.31Z" transform="translate(-129.65 -220.16)"/><path d="M220.15,261.72l-13.71-40.83h5.86L218.84,241c1.8,5.51,3.36,10.48,4.48,15.27h.13c1.19-4.73,2.93-9.87,4.79-15.21l7.1-20.17h5.79l-15,40.83Z" transform="translate(-129.65 -220.16)"/><path d="M271.71,242.57H255.4v14.72h18.18v4.43H250V220.89h22.67v4.42H255.4v12.91h16.31Z" transform="translate(-129.65 -220.16)"/><path d="M284.91,220.89h5.42v36.41h17.94v4.43H284.91Z" transform="translate(-129.65 -220.16)"/><path d="M352.05,240.88c0,14.06-8.79,21.5-19.5,21.5-11.08,0-18.87-8.36-18.87-20.72,0-13,8.28-21.45,19.5-21.45C344.64,220.22,352.05,228.76,352.05,240.88Zm-32.57.67c0,8.72,4.85,16.54,13.39,16.54s13.45-7.69,13.45-17c0-8.12-4.35-16.6-13.39-16.6S319.48,232.58,319.48,241.54Z" transform="translate(-129.65 -220.16)"/><path d="M363.38,221.36a64.59,64.59,0,0,1,10.4-.79c5.36,0,9.28,1.21,11.78,3.39a10.85,10.85,0,0,1,3.67,8.54,11.84,11.84,0,0,1-3.24,8.73c-2.86,3-7.54,4.48-12.83,4.48a18.84,18.84,0,0,1-4.35-.36v16.36h-5.42Zm5.42,19.69a18.78,18.78,0,0,0,4.48.43c6.54,0,10.52-3.09,10.52-8.72,0-5.4-3.92-8-9.9-8a23.24,23.24,0,0,0-5.1.43Z" transform="translate(-129.65 -220.16)"/><path d="M406.23,220.89v40.83h-5.42V220.89Z" transform="translate(-129.65 -220.16)"/><path d="M420,261.72V220.89h5.91l13.45,20.66a114.67,114.67,0,0,1,7.54,13.27l.12-.06c-.5-5.45-.62-10.42-.62-16.78V220.89h5.1v40.83H446L432.7,241a128.08,128.08,0,0,1-7.85-13.63l-.19.06c.31,5.15.44,10.06.44,16.85v17.45Z" transform="translate(-129.65 -220.16)"/><path d="M497.22,259.9a40,40,0,0,1-12.9,2.24c-6.35,0-11.58-1.57-15.69-5.39-3.61-3.39-5.85-8.84-5.85-15.21.06-12.18,8.65-21.08,22.73-21.08A26.54,26.54,0,0,1,496,222.34l-1.3,4.3a22.29,22.29,0,0,0-9.28-1.76c-10.22,0-16.88,6.18-16.88,16.42s6.42,16.48,16.19,16.48c3.55,0,6-.49,7.23-1.09V244.51h-8.53v-4.25h13.83Z" transform="translate(-129.65 -220.16)"/><path d="M536.14,220.89v23.45c0,7.08,2.8,10.66,7.6,10.66,5,0,7.72-3.39,7.72-10.66V220.89h9.47v22.9c0,12.6-6.54,18.6-17.5,18.6-10.58,0-16.75-5.75-16.75-18.72V220.89Z" transform="translate(-129.65 -220.16)"/><path d="M573.44,261.72V220.89h11.09l8.72,15a126.64,126.64,0,0,1,6.85,14h.13a164,164,0,0,1-.75-17.08V220.89h8.72v40.83h-10l-9-15.75A137.07,137.07,0,0,1,582,231.54h-.25c.31,5.45.43,11.21.43,17.88v12.3Z" transform="translate(-129.65 -220.16)"/><path d="M651.48,260.63a28.65,28.65,0,0,1-10.71,1.75c-14.51,0-22-8.84-22-20.48,0-13.93,10.21-21.63,22.92-21.63,4.92,0,8.66.91,10.34,1.81l-2,7.27a20.43,20.43,0,0,0-8-1.51c-7.47,0-13.32,4.42-13.32,13.51,0,8.18,5,13.33,13.38,13.33a23.08,23.08,0,0,0,8-1.34Z" transform="translate(-129.65 -220.16)"/><path d="M698.62,240.88c0,13.45-8.28,21.5-20.61,21.5s-19.75-9.15-19.75-20.84c0-12.24,8.09-21.39,20.43-21.39C691.58,220.16,698.62,229.55,698.62,240.88Zm-30.34.48c0,8.06,3.87,13.69,10.22,13.69s10.09-5.94,10.09-13.88c0-7.39-3.55-13.69-10.09-13.69S668.29,233.42,668.29,241.36Z" transform="translate(-129.65 -220.16)"/><path d="M709.14,261.72V220.89h11.08l8.72,15a128.18,128.18,0,0,1,6.85,14h.12a164,164,0,0,1-.75-17.08V220.89h8.72v40.83h-10L725,246a137.07,137.07,0,0,1-7.29-14.42h-.25c.31,5.45.43,11.21.43,17.88v12.3Z" transform="translate(-129.65 -220.16)"/><path d="M766.31,261.72l-13.45-40.83h10.4l5.11,17.26c1.43,4.91,2.74,9.51,3.73,14.6h.19c1.06-4.91,2.37-9.75,3.81-14.42l5.35-17.45h10.08L777.4,261.72Z" transform="translate(-129.65 -220.16)"/><path d="M825.29,244.45H809.85v9.7h17.25v7.57H800.38V220.89h25.85v7.57H809.85v8.49h15.44Z" transform="translate(-129.65 -220.16)"/><path d="M837.88,261.72V220.89H849l8.72,15a129,129,0,0,1,6.85,14h.12a164,164,0,0,1-.75-17.08V220.89h8.71v40.83h-10l-9-15.75a136.21,136.21,0,0,1-7.28-14.42h-.25c.31,5.45.44,11.21.44,17.88v12.3Z" transform="translate(-129.65 -220.16)"/><path d="M893.3,228.64H882v-7.75h32.26v7.75H902.76v33.08H893.3Z" transform="translate(-129.65 -220.16)"/><path d="M933.09,220.89v40.83h-9.46V220.89Z" transform="translate(-129.65 -220.16)"/><path d="M984,240.88c0,13.45-8.28,21.5-20.61,21.5s-19.74-9.15-19.74-20.84c0-12.24,8.09-21.39,20.42-21.39C977,220.16,984,229.55,984,240.88Zm-30.33.48c0,8.06,3.86,13.69,10.21,13.69S974,249.11,974,241.17c0-7.39-3.55-13.69-10.09-13.69S953.7,233.42,953.7,241.36Z" transform="translate(-129.65 -220.16)"/><path d="M994.56,261.72V220.89h11.08l8.72,15a127.38,127.38,0,0,1,6.85,14h.13a164,164,0,0,1-.75-17.08V220.89h8.72v40.83h-10l-9-15.75a137.08,137.08,0,0,1-7.29-14.42h-.25c.31,5.45.43,11.21.43,17.88v12.3Z" transform="translate(-129.65 -220.16)"/><path d="M1051.61,251.23l-3,10.48h-9.78l12.77-40.83h12.46l13.07,40.83h-10.27l-3.24-10.48Zm10.65-6.9-2.62-8.67c-.75-2.43-1.5-5.46-2.12-7.88h-.13c-.63,2.42-1.25,5.51-1.93,7.88l-2.49,8.67Z" transform="translate(-129.65 -220.16)"/><path d="M1087,220.89h9.47V254h16.69v7.75H1087Z" transform="translate(-129.65 -220.16)"/><path d="M1123.41,252.2a24.54,24.54,0,0,0,10.52,2.54c4.36,0,6.67-1.75,6.67-4.42s-2-4-7-5.7c-7-2.42-11.58-6.18-11.58-12.12,0-7,6-12.24,15.88-12.24a25.08,25.08,0,0,1,10.71,2.06l-2.12,7.39a20,20,0,0,0-8.71-1.94c-4.11,0-6.11,1.88-6.11,3.94,0,2.61,2.3,3.76,7.79,5.76,7.41,2.67,10.83,6.42,10.83,12.18,0,6.85-5.35,12.66-16.87,12.66a28.09,28.09,0,0,1-11.9-2.54Z" transform="translate(-129.65 -220.16)"/><path d="M129.66,221.43a79.17,79.17,0,0,1,11.52-.85c7.78,0,13.33,1.76,17,5.09s5.92,8.06,5.92,14.67-2.12,12.11-6,15.87-10.4,5.88-18.55,5.88a89.48,89.48,0,0,1-9.84-.48Zm5.42,36.11a35.19,35.19,0,0,0,5.48.3c11.58,0,17.87-6.3,17.87-17.32.06-9.63-5.54-15.75-17-15.75a31.79,31.79,0,0,0-6.35.54Z" transform="translate(-129.65 -220.16)"/><path d="M197.16,242.57H180.85v14.72H199v4.43h-23.6V220.89H198.1v4.42H180.85v12.91h16.31Z" transform="translate(-129.65 -220.16)"/><path d="M220.15,261.72l-13.7-40.83h5.85L218.84,241c1.81,5.51,3.36,10.48,4.48,15.27h.12c1.19-4.73,2.93-9.87,4.79-15.21l7.1-20.17h5.79l-15,40.83Z" transform="translate(-129.65 -220.16)"/><path d="M271.71,242.57H255.4v14.72h18.19v4.43H250V220.89h22.67v4.42H255.4v12.91h16.31Z" transform="translate(-129.65 -220.16)"/><path d="M284.91,220.89h5.42v36.41h17.94v4.43H284.91Z" transform="translate(-129.65 -220.16)"/><path d="M352.05,240.88c0,14.06-8.79,21.5-19.49,21.5-11.09,0-18.87-8.36-18.87-20.72,0-13,8.28-21.45,19.49-21.45C344.64,220.22,352.05,228.76,352.05,240.88Zm-32.57.67c0,8.72,4.86,16.54,13.39,16.54s13.45-7.69,13.45-17c0-8.12-4.35-16.6-13.39-16.6S319.48,232.58,319.48,241.54Z" transform="translate(-129.65 -220.16)"/><path d="M363.38,221.36a64.7,64.7,0,0,1,10.4-.79c5.36,0,9.28,1.21,11.77,3.39a10.85,10.85,0,0,1,3.67,8.54,11.85,11.85,0,0,1-3.23,8.73c-2.87,3-7.54,4.48-12.83,4.48a18.88,18.88,0,0,1-4.36-.36v16.36h-5.42Zm5.42,19.69a18.78,18.78,0,0,0,4.48.43c6.54,0,10.52-3.09,10.52-8.72,0-5.4-3.92-8-9.9-8a23.26,23.26,0,0,0-5.11.43Z" transform="translate(-129.65 -220.16)"/><path d="M406.23,220.89v40.83h-5.42V220.89Z" transform="translate(-129.65 -220.16)"/><path d="M420,261.72V220.89h5.92l13.45,20.66a114.6,114.6,0,0,1,7.54,13.27l.12-.06c-.49-5.45-.62-10.42-.62-16.78V220.89h5.1v40.83H446L432.7,241a128.14,128.14,0,0,1-7.85-13.63l-.19.06c.31,5.15.44,10.06.44,16.85v17.45Z" transform="translate(-129.65 -220.16)"/><path d="M497.22,259.9a40,40,0,0,1-12.89,2.24c-6.35,0-11.58-1.57-15.69-5.39-3.61-3.39-5.85-8.84-5.85-15.21.06-12.18,8.66-21.08,22.73-21.08A26.56,26.56,0,0,1,496,222.34l-1.31,4.3a22.29,22.29,0,0,0-9.28-1.76c-10.21,0-16.87,6.18-16.87,16.42s6.41,16.48,16.19,16.48c3.54,0,6-.49,7.22-1.09V244.51h-8.53v-4.25h13.83Z" transform="translate(-129.65 -220.16)"/><path d="M536.14,220.89v23.45c0,7.08,2.81,10.66,7.6,10.66,5,0,7.73-3.39,7.73-10.66V220.89h9.47v22.9c0,12.6-6.55,18.6-17.5,18.6-10.59,0-16.75-5.75-16.75-18.72V220.89Z" transform="translate(-129.65 -220.16)"/><path d="M573.44,261.72V220.89h11.09l8.72,15a126.64,126.64,0,0,1,6.85,14h.13a163.92,163.92,0,0,1-.75-17.08V220.89h8.72v40.83h-10l-9-15.75A136.34,136.34,0,0,1,582,231.54h-.25c.31,5.45.43,11.21.43,17.88v12.3Z" transform="translate(-129.65 -220.16)"/><path d="M651.48,260.63a28.63,28.63,0,0,1-10.71,1.75c-14.5,0-22-8.84-22-20.48,0-13.93,10.22-21.63,22.92-21.63,4.92,0,8.66.91,10.34,1.81l-2,7.27a20.43,20.43,0,0,0-8-1.51c-7.47,0-13.32,4.42-13.32,13.51,0,8.18,5,13.33,13.38,13.33a23.08,23.08,0,0,0,8-1.34Z" transform="translate(-129.65 -220.16)"/><path d="M698.62,240.88c0,13.45-8.28,21.5-20.61,21.5s-19.75-9.15-19.75-20.84c0-12.24,8.09-21.39,20.43-21.39C691.59,220.16,698.62,229.55,698.62,240.88Zm-30.34.48c0,8.06,3.87,13.69,10.22,13.69s10.1-5.94,10.1-13.88c0-7.39-3.56-13.69-10.1-13.69S668.29,233.42,668.29,241.36Z" transform="translate(-129.65 -220.16)"/><path d="M709.15,261.72V220.89h11.09l8.71,15a127.43,127.43,0,0,1,6.85,14h.12a165.18,165.18,0,0,1-.75-17.08V220.89h8.72v40.83h-10L725,246a137.07,137.07,0,0,1-7.29-14.42h-.25c.31,5.45.43,11.21.43,17.88v12.3Z" transform="translate(-129.65 -220.16)"/><path d="M766.31,261.72l-13.45-40.83h10.4l5.11,17.26c1.43,4.91,2.74,9.51,3.73,14.6h.19c1.06-4.91,2.37-9.75,3.81-14.42l5.35-17.45h10.08L777.4,261.72Z" transform="translate(-129.65 -220.16)"/><path d="M825.29,244.45H809.85v9.7h17.25v7.57H800.38V220.89h25.85v7.57H809.85v8.49h15.44Z" transform="translate(-129.65 -220.16)"/><path d="M837.88,261.72V220.89H849l8.72,15a129,129,0,0,1,6.85,14h.12a164,164,0,0,1-.75-17.08V220.89h8.71v40.83h-10l-9-15.75a136.21,136.21,0,0,1-7.28-14.42h-.25c.31,5.45.44,11.21.44,17.88v12.3Z" transform="translate(-129.65 -220.16)"/><path d="M893.3,228.64H882v-7.75h32.26v7.75H902.76v33.08H893.3Z" transform="translate(-129.65 -220.16)"/><path d="M933.09,220.89v40.83h-9.46V220.89Z" transform="translate(-129.65 -220.16)"/><path d="M984,240.88c0,13.45-8.28,21.5-20.61,21.5s-19.74-9.15-19.74-20.84c0-12.24,8.09-21.39,20.42-21.39C977,220.16,984,229.55,984,240.88Zm-30.33.48c0,8.06,3.86,13.69,10.21,13.69S974,249.11,974,241.17c0-7.39-3.55-13.69-10.09-13.69S953.7,233.42,953.7,241.36Z" transform="translate(-129.65 -220.16)"/><path d="M994.56,261.72V220.89h11.08l8.72,15a127.38,127.38,0,0,1,6.85,14h.13a164,164,0,0,1-.75-17.08V220.89h8.72v40.83h-10l-9-15.75a137.08,137.08,0,0,1-7.29-14.42h-.25c.31,5.45.43,11.21.43,17.88v12.3Z" transform="translate(-129.65 -220.16)"/><path d="M1051.61,251.23l-3,10.48h-9.78l12.77-40.83h12.46l13.07,40.83h-10.27l-3.24-10.48Zm10.65-6.9-2.62-8.67c-.75-2.43-1.5-5.46-2.12-7.88h-.13c-.63,2.42-1.25,5.51-1.93,7.88l-2.49,8.67Z" transform="translate(-129.65 -220.16)"/><path d="M1087,220.89h9.47V254h16.69v7.75H1087Z" transform="translate(-129.65 -220.16)"/><path d="M1123.41,252.2a24.54,24.54,0,0,0,10.52,2.54c4.36,0,6.67-1.75,6.67-4.42s-2-4-7-5.7c-7-2.42-11.58-6.18-11.58-12.12,0-7,6-12.24,15.88-12.24a25.08,25.08,0,0,1,10.71,2.06l-2.12,7.39a20,20,0,0,0-8.71-1.94c-4.11,0-6.11,1.88-6.11,3.94,0,2.61,2.3,3.76,7.79,5.76,7.41,2.67,10.83,6.42,10.83,12.18,0,6.85-5.35,12.66-16.87,12.66a28.09,28.09,0,0,1-11.9-2.54Z" transform="translate(-129.65 -220.16)"/><path class="078e58ef-b09a-4e44-aaaf-e1baa0236641" d="M634.48,483.39c45.48,68-19.12,88.07-23.77,142.48-25.52-61.86,17.22-94.69,23.77-142.48Z" transform="translate(-129.65 -220.16)"/><path class="094ffe2a-9bb4-44f7-a2f4-8e1e07767fb6" d="M610.89,341.48C673.36,391.27,718.62,454.64,717.3,539c-.7,45.37-34.59,90.57-88.47,90-1.75-34.7,35.81-48.15,40.47-85.87,5.17-42-11.1-75.9-41.67-102.44-1.6-23.53-5.92-36.17-22.21-52.94,6.14-15.77,8.94-31.22,5.45-46.26Z" transform="translate(-129.65 -220.16)"/><path class="f5ef65a7-3423-4791-a527-82b70f5d213b" d="M610.89,341.48C673.36,391.27,718.62,454.64,717.3,539c-.7,45.37-34.59,90.57-88.47,90,131.77-16.17,87-195.61-17.16-264h0a63.48,63.48,0,0,0-.79-23.5Z" transform="translate(-129.65 -220.16)"/><path class="a9c1a80a-9482-4357-8a0d-be6bccb214d4" d="M592.7,622.06c-34.87-14.71-52.4-50.68-53-86.56-.74-48.22,42.9-95.9,62.89-141.05C614.38,405.56,618,419,619.95,434.37c11.17,87.77-59.25,96-27.25,187.69Z" transform="translate(-129.65 -220.16)"/><path class="e065601b-1fc5-4d42-ab0a-9d8fa22c8a4a" d="M592.7,622.06c-34.87-14.71-52.41-50.68-53-86.56-.74-48.22,42.9-95.9,62.89-141.05-12.12,68.78-87.09,139.89-9.93,227.61Z" transform="translate(-129.65 -220.16)"/></svg>